<mxfile host="app.diagrams.net" modified="2021-06-03T06:06:00.265Z" agent="5.0 (Macintosh; Intel Mac OS X 10_15_5) AppleWebKit/537.36 (KHTML, like Gecko) Chrome/90.0.4430.212 Safari/537.36" etag="gy0AQ-vnp3H9fQ5DxAKh" version="14.7.3" type="github">
  <diagram id="cT5j3dkFr9B9ZT-f65gV" name="Page-1">
    <mxGraphModel dx="1186" dy="719" grid="1" gridSize="10" guides="1" tooltips="1" connect="1" arrows="1" fold="1" page="1" pageScale="1" pageWidth="827" pageHeight="1169" math="0" shadow="0">
      <root>
        <mxCell id="0" />
        <mxCell id="1" parent="0" />
        <mxCell id="FcJdD7KqgJgj5bs2ALaG-2" value="Views" style="text;html=1;resizable=0;autosize=1;align=center;verticalAlign=middle;points=[];fillColor=none;strokeColor=none;rounded=0;fontSize=20;fontStyle=1" vertex="1" parent="1">
          <mxGeometry x="115" y="75" width="70" height="30" as="geometry" />
        </mxCell>
        <mxCell id="FcJdD7KqgJgj5bs2ALaG-5" value="" style="rounded=0;whiteSpace=wrap;html=1;" vertex="1" parent="1">
          <mxGeometry x="40" y="120" width="240" height="160" as="geometry" />
        </mxCell>
        <mxCell id="FcJdD7KqgJgj5bs2ALaG-6" value="" style="rounded=0;whiteSpace=wrap;html=1;fontSize=22;" vertex="1" parent="1">
          <mxGeometry x="60" y="170" width="200" height="60" as="geometry" />
        </mxCell>
        <mxCell id="FcJdD7KqgJgj5bs2ALaG-7" value="Page View" style="text;html=1;resizable=0;autosize=1;align=center;verticalAlign=middle;points=[];fillColor=none;strokeColor=none;rounded=0;fontSize=20;fontStyle=1" vertex="1" parent="1">
          <mxGeometry x="105" y="185" width="110" height="30" as="geometry" />
        </mxCell>
        <mxCell id="FcJdD7KqgJgj5bs2ALaG-8" value="" style="rounded=0;whiteSpace=wrap;html=1;" vertex="1" parent="1">
          <mxGeometry x="40" y="400" width="240" height="250" as="geometry" />
        </mxCell>
        <mxCell id="FcJdD7KqgJgj5bs2ALaG-9" value="Templates Folder" style="text;html=1;resizable=0;autosize=1;align=center;verticalAlign=middle;points=[];fillColor=none;strokeColor=none;rounded=0;fontSize=20;fontStyle=1" vertex="1" parent="1">
          <mxGeometry x="70" y="360" width="180" height="30" as="geometry" />
        </mxCell>
        <mxCell id="FcJdD7KqgJgj5bs2ALaG-10" value="" style="rounded=0;whiteSpace=wrap;html=1;fontSize=22;" vertex="1" parent="1">
          <mxGeometry x="60" y="520" width="200" height="110" as="geometry" />
        </mxCell>
        <mxCell id="FcJdD7KqgJgj5bs2ALaG-13" value="Page Folder" style="text;html=1;resizable=0;autosize=1;align=center;verticalAlign=middle;points=[];fillColor=none;strokeColor=none;rounded=0;fontSize=20;fontStyle=1" vertex="1" parent="1">
          <mxGeometry x="65" y="480" width="130" height="30" as="geometry" />
        </mxCell>
        <mxCell id="FcJdD7KqgJgj5bs2ALaG-14" value="&lt;font face=&quot;helvetica&quot; style=&quot;font-size: 20px;&quot;&gt;&lt;b style=&quot;font-size: 20px;&quot;&gt;Page Template&lt;/b&gt;&lt;/font&gt;" style="rounded=0;whiteSpace=wrap;html=1;fontSize=20;" vertex="1" parent="1">
          <mxGeometry x="75" y="545" width="170" height="60" as="geometry" />
        </mxCell>
        <mxCell id="FcJdD7KqgJgj5bs2ALaG-15" value="" style="rounded=0;whiteSpace=wrap;html=1;fontSize=22;" vertex="1" parent="1">
          <mxGeometry x="360" y="60" width="280" height="60" as="geometry" />
        </mxCell>
        <mxCell id="FcJdD7KqgJgj5bs2ALaG-16" value="Page View(Object)" style="text;html=1;resizable=0;autosize=1;align=center;verticalAlign=middle;points=[];fillColor=none;strokeColor=none;rounded=0;fontSize=20;fontStyle=1" vertex="1" parent="1">
          <mxGeometry x="405" y="75" width="190" height="30" as="geometry" />
        </mxCell>
        <mxCell id="FcJdD7KqgJgj5bs2ALaG-18" value="" style="rounded=0;whiteSpace=wrap;html=1;fontSize=22;" vertex="1" parent="1">
          <mxGeometry x="580" y="200" width="220" height="60" as="geometry" />
        </mxCell>
        <mxCell id="FcJdD7KqgJgj5bs2ALaG-19" value="render(&quot;index.html&quot;)" style="text;html=1;resizable=0;autosize=1;align=center;verticalAlign=middle;points=[];fillColor=none;strokeColor=none;rounded=0;fontSize=20;fontStyle=1" vertex="1" parent="1">
          <mxGeometry x="585" y="215" width="210" height="30" as="geometry" />
        </mxCell>
        <mxCell id="FcJdD7KqgJgj5bs2ALaG-20" value="" style="endArrow=none;html=1;fontSize=20;entryX=0.5;entryY=1;entryDx=0;entryDy=0;" edge="1" parent="1" target="FcJdD7KqgJgj5bs2ALaG-15">
          <mxGeometry width="50" height="50" relative="1" as="geometry">
            <mxPoint x="500" y="570" as="sourcePoint" />
            <mxPoint x="440" y="340" as="targetPoint" />
            <Array as="points" />
          </mxGeometry>
        </mxCell>
        <mxCell id="FcJdD7KqgJgj5bs2ALaG-21" value="" style="endArrow=none;html=1;fontSize=20;entryX=0;entryY=0.5;entryDx=0;entryDy=0;" edge="1" parent="1" target="FcJdD7KqgJgj5bs2ALaG-18">
          <mxGeometry width="50" height="50" relative="1" as="geometry">
            <mxPoint x="500" y="230" as="sourcePoint" />
            <mxPoint x="400" y="260" as="targetPoint" />
          </mxGeometry>
        </mxCell>
        <mxCell id="FcJdD7KqgJgj5bs2ALaG-23" value="" style="shape=flexArrow;endArrow=classic;html=1;fontSize=20;" edge="1" parent="1">
          <mxGeometry width="50" height="50" relative="1" as="geometry">
            <mxPoint x="330" y="230" as="sourcePoint" />
            <mxPoint x="450" y="230" as="targetPoint" />
          </mxGeometry>
        </mxCell>
        <mxCell id="FcJdD7KqgJgj5bs2ALaG-24" value="" style="shape=flexArrow;endArrow=classic;html=1;fontSize=20;" edge="1" parent="1">
          <mxGeometry width="50" height="50" relative="1" as="geometry">
            <mxPoint x="330" y="350" as="sourcePoint" />
            <mxPoint x="450" y="350" as="targetPoint" />
          </mxGeometry>
        </mxCell>
        <mxCell id="FcJdD7KqgJgj5bs2ALaG-25" value="" style="shape=flexArrow;endArrow=classic;html=1;fontSize=20;" edge="1" parent="1">
          <mxGeometry width="50" height="50" relative="1" as="geometry">
            <mxPoint x="330" y="480" as="sourcePoint" />
            <mxPoint x="450" y="480" as="targetPoint" />
          </mxGeometry>
        </mxCell>
      </root>
    </mxGraphModel>
  </diagram>
</mxfile>
